<svg xmlns="http://www.w3.org/2000/svg" viewBox="0 0 256 256">
  <defs>
    <linearGradient id="noteGradient" x1="0" y1="0" x2="1" y2="1">
      <stop offset="0%" stop-color="#7b61ff"/>
      <stop offset="100%" stop-color="#57d7ff"/>
    </linearGradient>
    <filter id="shadow" x="-20%" y="-20%" width="140%" height="140%">
      <feDropShadow dx="0" dy="10" stdDeviation="12" flood-color="#000" flood-opacity="0.25"/>
    </filter>
  </defs>
  <rect width="256" height="256" rx="48" fill="#12192d"/>
  <g filter="url(#shadow)">
    <path d="M162 40c0-6.6-5.4-12-12-12H94c-6.6 0-12 5.4-12 12v100.4c-9.8-5.9-22-5.1-31.1 2.1-11.4 8.9-14.9 24.9-8.4 37.5 6.3 12.1 19.4 19.5 33.3 18.4V166.5c0-12.6 10.2-22.8 22.8-22.8 12.6 0 22.8 10.2 22.8 22.8v50.8c0 13 10.5 23.5 23.5 23.5s23.5-10.5 23.5-23.5V70c0-9.9-5.8-18.6-14.1-22.4L162 40z" fill="url(#noteGradient)"/>
    <circle cx="71" cy="184" r="25" fill="#170f3d" opacity="0.8"/>
    <circle cx="179" cy="180" r="25" fill="#170f3d" opacity="0.8"/>
  </g>
  <path d="M129 62c8.3-3.9 17.7-5.4 27.2-4.4M109 90v72" stroke="#ffffff" stroke-width="8" stroke-linecap="round" stroke-linejoin="round" opacity="0.85"/>
</svg>
