<svg xmlns="http://www.w3.org/2000/svg" viewBox="0 0 64 64" fill="none">
  <circle cx="32" cy="32" r="30" fill="#ff4d6d" stroke="#ffffff" stroke-width="3"/>
  <path d="M24 28c0-4.4 3.6-8 8-8s8 3.6 8 8v8c0 4.4-3.6 8-8 8s-8-3.6-8-8v-8z" fill="#ffffff"/>
  <path d="M20 36h4v6c0 4.4 3.6 8 8 8s8-3.6 8-8v-6h4v6c0 6.6-5.4 12-12 12s-12-5.4-12-12v-6z" fill="#ffffff"/>
  <path d="M28 48h8v4h-8z" fill="#ffffff"/>
  <line x1="14" y1="14" x2="50" y2="50" stroke="#ffffff" stroke-width="5" stroke-linecap="round"/>
</svg>
